<?xml version="1.0" standalone="no"?>
<!DOCTYPE svg PUBLIC "-//W3C//DTD SVG 20010904//EN"
 "http://www.w3.org/TR/2001/REC-SVG-20010904/DTD/svg10.dtd">
<svg version="1.0" xmlns="http://www.w3.org/2000/svg"
 width="1091.000000pt" height="949.000000pt" viewBox="0 0 1091.000000 949.000000"
 preserveAspectRatio="xMidYMid meet">

<g transform="translate(0.000000,949.000000) scale(0.100000,-0.100000)"
fill="#000000" stroke="none">
<path d="M5150 6474 c-19 -2 -84 -9 -145 -15 -723 -73 -1421 -415 -1940 -950
-493 -510 -793 -1136 -880 -1839 -20 -167 -20 -601 0 -767 89 -721 404 -1364
919 -1878 429 -428 969 -724 1561 -855 257 -57 340 -65 695 -65 288 1 342 3
469 23 1035 163 1922 808 2380 1732 230 464 333 903 334 1420 1 289 -21 483
-83 745 -202 855 -754 1593 -1524 2035 -356 205 -755 338 -1186 395 -109 15
-525 28 -600 19z m630 -78 c541 -82 1028 -281 1440 -588 613 -458 1040 -1117
1200 -1854 82 -380 91 -807 25 -1199 -145 -853 -642 -1611 -1370 -2090 -402
-264 -830 -422 -1330 -491 -180 -25 -607 -25 -784 0 -507 71 -936 231 -1341
501 -186 124 -321 235 -485 400 -490 489 -785 1086 -892 1800 -28 188 -25 659
6 855 88 572 309 1081 657 1518 103 129 363 389 494 492 363 288 817 507 1255
605 111 25 321 59 425 68 108 11 598 -2 700 -17z"/>
<path d="M4979 5407 c-195 -81 -369 -254 -466 -466 -45 -97 -63 -162 -63 -231
0 -247 219 -506 439 -518 64 -4 68 -2 136 43 66 44 73 46 125 42 30 -3 84 -12
120 -22 72 -19 135 -16 218 11 61 20 87 12 162 -47 86 -68 138 -174 140 -284
1 -36 -27 -772 -30 -781 0 -1 -26 5 -57 13 -32 8 -128 17 -213 20 -125 5 -172
2 -240 -11 -140 -29 -252 -84 -349 -171 l-39 -35 -118 40 c-146 48 -275 70
-417 70 -395 0 -702 -223 -883 -644 -56 -129 -66 -303 -28 -512 76 -430 393
-727 810 -759 112 -9 262 12 439 60 142 39 179 41 321 20 314 -47 708 10 1076
156 543 215 1195 710 1298 986 34 92 28 184 -25 366 -25 85 -59 192 -76 238
-17 46 -57 156 -88 244 -198 550 -402 963 -610 1233 -81 104 -335 346 -471
448 -291 218 -640 401 -925 484 -57 17 -109 30 -116 30 -8 0 -39 -11 -70 -23z
m208 -146 c254 -83 510 -218 783 -413 316 -225 561 -534 824 -1038 152 -292
347 -809 447 -1186 26 -99 21 -168 -19 -236 -43 -74 -159 -204 -254 -283 -487
-410 -992 -660 -1476 -731 -150 -23 -390 -22 -522 1 -119 20 -191 16 -290 -15
-113 -36 -303 -70 -393 -70 -375 0 -660 246 -743 640 -13 60 -18 129 -19 235
l0 150 52 108 c141 293 306 443 563 513 87 23 295 23 403 0 100 -22 243 -71
240 -82 -2 -5 -19 -48 -38 -96 -41 -100 -61 -188 -71 -303 -5 -70 -4 -83 13
-104 24 -30 70 -31 93 -3 12 14 19 49 23 114 20 294 167 503 407 574 129 38
337 36 524 -7 104 -24 121 -22 142 19 11 21 40 685 38 872 -1 155 -52 269
-165 374 -110 102 -208 132 -301 92 -51 -22 -123 -20 -199 5 -111 36 -215 16
-302 -57 -38 -32 -51 -30 -134 11 -141 71 -222 192 -231 345 -4 77 -1 92 27
166 53 138 145 261 253 341 52 38 175 103 195 103 7 0 65 -17 130 -39z"/>
<path d="M6098 2090 c-12 -16 -43 -57 -68 -91 -91 -125 -253 -235 -416 -280
-63 -18 -104 -23 -199 -22 -126 0 -164 7 -307 50 -81 24 -89 25 -111 10 -30
-19 -38 -48 -23 -79 23 -48 268 -108 441 -108 257 0 480 99 663 294 120 128
155 202 114 239 -29 26 -67 21 -94 -13z"/>
</g>
</svg>
